<svg width="120" height="90" viewBox="0 0 31.75 23.813" xml:space="preserve" xmlns="http://www.w3.org/2000/svg">
    <path style="fill:currentcolor;fill-opacity:1;stroke-width:.0666574" d="M-128.09-50.176a7.939 7.939 0 0 0-7.929 8.35c.22 8.577 7.238 15.463 15.87 15.463 8.632 0 15.65-6.887 15.87-15.464a7.94 7.94 0 0 1-7.93 7.526 7.939 7.939 0 0 1-7.94-7.937 7.939 7.939 0 0 0-7.94-7.938zm-4.515 5.366c.719 0 1.302.583 1.302 1.302v2.54a1.302 1.302 0 0 1-2.604 0v-2.54c0-.72.583-1.302 1.302-1.302zm5.047 0c.72 0 1.302.583 1.302 1.302v2.54a1.302 1.302 0 0 1-2.604 0v-2.54c0-.72.583-1.302 1.302-1.302z" transform="translate(136.03 50.176)"/>
</svg>
